<svg version="1" xmlns="http://www.w3.org/2000/svg" width="360" height="360" viewBox="0 0 270.000000 270.000000"><path d="M28.9 18c-8.3 1.4-13.4 5.3-16.4 12.2-2 4.9-1.9 10.4.4 15.3 3.7 8.1 9.1 10.9 22.9 12l9.2.7V137c0 87.6.6 80-6.8 80-4.6 0-10.9 2.9-14.1 6.3-6.2 6.8-5.8 20.2.8 26.8 5.7 5.8 8.3 6.2 41.3 6.6 33.2.5 44.7-.4 51-3.9 11.9-6.7 11.9-25.9 0-32.6-4.4-2.4-14.6-4.1-25.4-4.2H85v-61.2c0-36.8.4-60.8.9-60.3 1.4 1.5 101.2 157.6 102.4 160.3 1 2.2 1.3 2.2 20.9 2.2H229v-99.4c0-109.4-.5-100.6 6-100.6 3.6 0 10.9-2.6 13.3-4.8 8-7.2 7.4-24-1-30-6.4-4.4-8.9-4.7-46.3-4.7-37.9 0-40.1.2-46.6 5.1-4.2 3.1-6.5 8.4-6.5 14.9 0 9.1 4.5 15.5 13 18.4 1.8.6 8.9 1.4 15.7 1.7l12.4.7v60.9c0 33.4-.1 60.8-.3 60.8-.2 0-23.7-36.7-52.3-81.5L84.5 17l-25.5.1c-14 .1-27.6.5-30.1.9z"/></svg>